<svg width="60" height="78" viewBox="0 0 60 78" fill="none" xmlns="http://www.w3.org/2000/svg">
<g filter="url(#filter0_ii_635_21)">
<rect y="18" width="60" height="60" rx="8" fill="#202020"/>
</g>
<rect x="0.5" y="18.5" width="59" height="59" rx="7.5" stroke="#5E5E5E"/>
<path d="M29.9667 0C45.9933 0 46.1497 15.1277 44.0722 22.3506C41.9946 29.5735 29.8749 48.4209 29.8749 48.4209C29.8402 48.3674 17.638 29.5632 15.6786 22.3506C13.7165 15.1277 15.3042 0.341069 29.9667 0ZM29.9667 5.45605C25.0705 5.45612 21.1017 9.42506 21.1015 14.3213C21.1015 19.2177 25.0703 23.1874 29.9667 23.1875C34.8632 23.1875 38.8329 19.2177 38.8329 14.3213C38.8327 9.42502 34.863 5.45605 29.9667 5.45605Z" fill="#FECC1C"/>
<defs>
<filter id="filter0_ii_635_21" x="-4" y="14" width="68" height="68" filterUnits="userSpaceOnUse" color-interpolation-filters="sRGB">
<feFlood flood-opacity="0" result="BackgroundImageFix"/>
<feBlend mode="normal" in="SourceGraphic" in2="BackgroundImageFix" result="shape"/>
<feColorMatrix in="SourceAlpha" type="matrix" values="0 0 0 0 0 0 0 0 0 0 0 0 0 0 0 0 0 0 127 0" result="hardAlpha"/>
<feOffset dx="4" dy="4"/>
<feGaussianBlur stdDeviation="2"/>
<feComposite in2="hardAlpha" operator="arithmetic" k2="-1" k3="1"/>
<feColorMatrix type="matrix" values="0 0 0 0 0 0 0 0 0 0 0 0 0 0 0 0 0 0 0.25 0"/>
<feBlend mode="normal" in2="shape" result="effect1_innerShadow_635_21"/>
<feColorMatrix in="SourceAlpha" type="matrix" values="0 0 0 0 0 0 0 0 0 0 0 0 0 0 0 0 0 0 127 0" result="hardAlpha"/>
<feOffset dx="-4" dy="-4"/>
<feGaussianBlur stdDeviation="2"/>
<feComposite in2="hardAlpha" operator="arithmetic" k2="-1" k3="1"/>
<feColorMatrix type="matrix" values="0 0 0 0 0.471154 0 0 0 0 0.471154 0 0 0 0 0.471154 0 0 0 0.25 0"/>
<feBlend mode="normal" in2="effect1_innerShadow_635_21" result="effect2_innerShadow_635_21"/>
</filter>
</defs>
</svg>
