<svg width="60" height="144" viewBox="0 0 60 144" fill="none" xmlns="http://www.w3.org/2000/svg">
<rect x="20" width="20" height="84" fill="url(#paint0_linear_499_7)"/>
<g filter="url(#filter0_ii_499_7)">
<rect y="84" width="60" height="60" rx="8" fill="#202020"/>
</g>
<rect x="0.5" y="84.5" width="59" height="59" rx="7.5" stroke="#5E5E5E"/>
<path d="M29.9667 66C45.9933 66 46.1497 81.1277 44.0722 88.3506C41.9946 95.5735 29.8749 114.421 29.8749 114.421C29.8402 114.367 17.638 95.5632 15.6786 88.3506C13.7165 81.1277 15.3042 66.3411 29.9667 66ZM29.9667 71.4561C25.0705 71.4561 21.1017 75.4251 21.1015 80.3213C21.1015 85.2177 25.0703 89.1874 29.9667 89.1875C34.8632 89.1875 38.8329 85.2177 38.8329 80.3213C38.8327 75.425 34.863 71.4561 29.9667 71.4561Z" fill="#FECC1C"/>
<defs>
<filter id="filter0_ii_499_7" x="-4" y="80" width="68" height="68" filterUnits="userSpaceOnUse" color-interpolation-filters="sRGB">
<feFlood flood-opacity="0" result="BackgroundImageFix"/>
<feBlend mode="normal" in="SourceGraphic" in2="BackgroundImageFix" result="shape"/>
<feColorMatrix in="SourceAlpha" type="matrix" values="0 0 0 0 0 0 0 0 0 0 0 0 0 0 0 0 0 0 127 0" result="hardAlpha"/>
<feOffset dx="4" dy="4"/>
<feGaussianBlur stdDeviation="2"/>
<feComposite in2="hardAlpha" operator="arithmetic" k2="-1" k3="1"/>
<feColorMatrix type="matrix" values="0 0 0 0 0 0 0 0 0 0 0 0 0 0 0 0 0 0 0.25 0"/>
<feBlend mode="normal" in2="shape" result="effect1_innerShadow_499_7"/>
<feColorMatrix in="SourceAlpha" type="matrix" values="0 0 0 0 0 0 0 0 0 0 0 0 0 0 0 0 0 0 127 0" result="hardAlpha"/>
<feOffset dx="-4" dy="-4"/>
<feGaussianBlur stdDeviation="2"/>
<feComposite in2="hardAlpha" operator="arithmetic" k2="-1" k3="1"/>
<feColorMatrix type="matrix" values="0 0 0 0 0.471154 0 0 0 0 0.471154 0 0 0 0 0.471154 0 0 0 0.25 0"/>
<feBlend mode="normal" in2="effect1_innerShadow_499_7" result="effect2_innerShadow_499_7"/>
</filter>
<linearGradient id="paint0_linear_499_7" x1="30" y1="24.7397" x2="30" y2="47.7534" gradientUnits="userSpaceOnUse">
<stop stop-color="#00B8A8" stop-opacity="0.01"/>
<stop offset="1" stop-color="#008277"/>
</linearGradient>
</defs>
</svg>
