<svg width="1920" height="1080" viewBox="0 0 1920 1080" fill="none" xmlns="http://www.w3.org/2000/svg">
<path d="M0.00960282 0H1920L1919.99 1080C1919.99 1080 1136 1080 1125.33 1080C1114.67 1080 1100 1070.42 1100 1057.25C1100 1044.08 1100 1036.89 1100 1036.89C1100 1036.89 1100 1028.31 1100 1013.35C1100 998.381 1084.67 990 1074 990C1063.33 990 1010.66 990 1010.66 990C1010.66 990 856 990 846 990C836 990 820.667 997.184 820 1013.35C820 1029.51 820 1028.98 820 1028.98C820 1028.98 820 1042.28 820 1056.65C820 1071.02 805.333 1080 794.667 1080C784 1080 479.998 1080 479.998 1080H0L0.00960282 0Z" fill="#D9D9D9"/>
</svg>
