<svg width="100" height="100" viewBox="0 0 100 100" fill="none" xmlns="http://www.w3.org/2000/svg">
<rect width="100" height="100" rx="10" fill="url(#paint0_linear_567_28)"/>
<path d="M38.8295 67V61.6818L51.2557 50.1761C52.3125 49.1534 53.1989 48.233 53.9148 47.4148C54.642 46.5966 55.1932 45.7955 55.5682 45.0114C55.9432 44.2159 56.1307 43.358 56.1307 42.4375C56.1307 41.4148 55.8977 40.5341 55.4318 39.7955C54.9659 39.0455 54.3295 38.4716 53.5227 38.0739C52.7159 37.6648 51.8011 37.4602 50.7784 37.4602C49.7102 37.4602 48.7784 37.6761 47.983 38.108C47.1875 38.5398 46.5739 39.1591 46.142 39.9659C45.7102 40.7727 45.4943 41.733 45.4943 42.8466H38.4886C38.4886 40.5625 39.0057 38.5795 40.0398 36.8977C41.0739 35.2159 42.5227 33.9148 44.3864 32.9943C46.25 32.0739 48.3977 31.6136 50.8295 31.6136C53.3295 31.6136 55.5057 32.0568 57.358 32.9432C59.2216 33.8182 60.6705 35.0341 61.7045 36.5909C62.7386 38.1477 63.2557 39.9318 63.2557 41.9432C63.2557 43.2614 62.9943 44.5625 62.4716 45.8466C61.9602 47.1307 61.0455 48.5568 59.7273 50.125C58.4091 51.6818 56.5511 53.5511 54.1534 55.733L49.0568 60.7273V60.9659H63.7159V67H38.8295Z" fill="white"/>
<defs>
<linearGradient id="paint0_linear_567_28" x1="2" y1="3.5" x2="92.5" y2="97" gradientUnits="userSpaceOnUse">
<stop stop-color="#FECC1C"/>
<stop offset="1" stop-color="#FFBE74"/>
</linearGradient>
</defs>
</svg>
