<svg width="100" height="100" viewBox="0 0 100 100" fill="none" xmlns="http://www.w3.org/2000/svg">
<rect width="100" height="100" rx="10" fill="url(#paint0_linear_567_29)"/>
<path d="M51.733 67.4773C49.1875 67.4773 46.9205 67.0398 44.9318 66.1648C42.9545 65.2784 41.392 64.0625 40.2443 62.517C39.108 60.9602 38.5227 59.1648 38.4886 57.1307H45.9205C45.9659 57.983 46.2443 58.733 46.7557 59.3807C47.2784 60.017 47.9716 60.5114 48.8352 60.8636C49.6989 61.2159 50.6705 61.392 51.75 61.392C52.875 61.392 53.8693 61.1932 54.733 60.7955C55.5966 60.3977 56.2727 59.8466 56.7614 59.142C57.25 58.4375 57.4943 57.625 57.4943 56.7045C57.4943 55.7727 57.233 54.9489 56.7102 54.233C56.1989 53.5057 55.4602 52.9375 54.4943 52.5284C53.5398 52.1193 52.4034 51.9148 51.0852 51.9148H47.8295V46.4943H51.0852C52.1989 46.4943 53.1818 46.3011 54.0341 45.9148C54.8977 45.5284 55.5682 44.9943 56.0455 44.3125C56.5227 43.6193 56.7614 42.8125 56.7614 41.892C56.7614 41.017 56.5511 40.25 56.1307 39.5909C55.7216 38.9205 55.142 38.3977 54.392 38.0227C53.6534 37.6477 52.7898 37.4602 51.8011 37.4602C50.8011 37.4602 49.8864 37.642 49.0568 38.0057C48.2273 38.358 47.5625 38.8636 47.0625 39.5227C46.5625 40.1818 46.2955 40.9545 46.2614 41.8409H39.1875C39.2216 39.8295 39.7955 38.0568 40.9091 36.5227C42.0227 34.9886 43.5227 33.7898 45.4091 32.9261C47.3068 32.0511 49.4489 31.6136 51.8352 31.6136C54.2443 31.6136 56.3523 32.0511 58.1591 32.9261C59.9659 33.8011 61.3693 34.983 62.3693 36.4716C63.3807 37.9489 63.8807 39.608 63.8693 41.4489C63.8807 43.4034 63.2727 45.0341 62.0455 46.3409C60.8295 47.6477 59.2443 48.4773 57.2898 48.8295V49.1023C59.858 49.4318 61.8125 50.3239 63.1534 51.7784C64.5057 53.2216 65.1761 55.0284 65.1648 57.1989C65.1761 59.1875 64.6023 60.9545 63.4432 62.5C62.2955 64.0455 60.7102 65.2614 58.6875 66.1477C56.6648 67.0341 54.3466 67.4773 51.733 67.4773Z" fill="white"/>
<defs>
<linearGradient id="paint0_linear_567_29" x1="2" y1="3.5" x2="92.5" y2="97" gradientUnits="userSpaceOnUse">
<stop stop-color="#FECC1C"/>
<stop offset="1" stop-color="#FFBE74"/>
</linearGradient>
</defs>
</svg>
